<?xml version="1.0" standalone="no"?>
<!DOCTYPE svg PUBLIC "-//W3C//DTD SVG 20010904//EN"
 "http://www.w3.org/TR/2001/REC-SVG-20010904/DTD/svg10.dtd">
<svg version="1.0" xmlns="http://www.w3.org/2000/svg"
 width="143.000000pt" height="143.000000pt" viewBox="0 0 143.000000 143.000000"
 preserveAspectRatio="xMidYMid meet">
<metadata>
Created by potrace 1.14, written by Peter Selinger 2001-2017
</metadata>
<g transform="translate(0.000000,143.000000) scale(0.100000,-0.100000)"
fill="#000000" stroke="none">
<path d="M629 1395 c-2 -2 -24 -6 -48 -10 -155 -23 -296 -130 -361 -273 -50
-110 -54 -115 -83 -123 -131 -35 -175 -210 -82 -321 25 -29 25 -32 25 -208 0
-195 4 -230 29 -257 32 -35 51 -68 51 -89 0 -29 45 -64 82 -64 31 0 78 38 78
65 0 13 45 15 395 15 376 0 395 -1 395 -18 0 -29 42 -62 79 -62 39 0 81 38 81
74 0 14 8 33 19 43 53 51 56 65 59 273 l4 195 36 58 c29 48 36 68 35 111 -1
86 -49 155 -126 182 -35 12 -47 21 -52 42 -14 55 -70 154 -114 200 -115 120
-213 163 -387 168 -62 1 -113 1 -115 -1z m257 -99 c69 -21 150 -77 201 -138
47 -56 94 -159 76 -165 -35 -12 -93 -67 -112 -105 -18 -38 -21 -62 -21 -161
l0 -117 -315 0 -315 0 -1 23 c-1 12 -1 51 -1 87 1 138 -33 216 -109 256 -16 8
-29 20 -29 28 0 46 89 174 164 234 32 26 129 65 180 72 76 11 224 3 282 -14z
m-621 -398 c41 -32 53 -72 54 -184 l2 -101 -41 -43 c-45 -47 -52 -88 -25 -140
32 -62 40 -63 460 -63 400 0 407 0 447 46 41 47 27 136 -28 172 -23 15 -24 20
-24 126 0 82 4 120 16 145 31 66 118 85 173 39 61 -52 62 -138 1 -185 l-30
-23 0 -197 c0 -212 -7 -251 -46 -269 -35 -15 -983 -16 -1017 0 -42 19 -47 47
-47 257 l0 198 -34 36 c-19 20 -37 50 -41 67 -22 100 100 182 180 119z m835
-388 c14 -22 12 -36 -6 -51 -12 -10 -93 -13 -370 -13 -196 -1 -364 2 -375 6
-27 10 -34 36 -16 56 15 16 46 18 387 17 317 0 372 -2 380 -15z"/>
<path d="M480 1080 c0 -5 16 -31 35 -56 39 -51 62 -100 68 -142 4 -32 31 -36
35 -6 5 34 -35 127 -74 172 -33 39 -64 55 -64 32z"/>
<path d="M883 1047 c-63 -84 -96 -197 -58 -197 8 0 15 3 16 8 5 57 37 127 78
174 35 40 39 58 14 58 -10 0 -32 -20 -50 -43z"/>
</g>
</svg>
